<?xml version="1.0" standalone="no"?>
<!DOCTYPE svg PUBLIC "-//W3C//DTD SVG 20010904//EN"
 "http://www.w3.org/TR/2001/REC-SVG-20010904/DTD/svg10.dtd">
<svg version="1.0" xmlns="http://www.w3.org/2000/svg"
 width="1280.000000pt" height="1280.000000pt" viewBox="0 0 1280.000000 1280.000000"
 preserveAspectRatio="xMidYMid meet">
<metadata>
Created by potrace 1.14, written by Peter Selinger 2001-2017
</metadata>
<g transform="translate(0.000000,1280.000000) scale(0.100000,-0.100000)"
fill="#000000" stroke="none">
<path d="M6369 12504 c-6 -8 -8 -14 -3 -14 4 0 3 -5 -4 -12 -8 -8 -15 -8 -24
-1 -12 11 -54 18 -70 13 -5 -1 -12 -4 -18 -5 -5 -1 -11 -3 -12 -5 -2 -1 -12
-3 -23 -5 -10 -2 -27 -14 -36 -27 -14 -18 -26 -22 -68 -22 -28 1 -57 7 -65 13
-10 8 -16 9 -21 1 -3 -5 -2 -10 4 -10 6 0 8 -6 5 -14 -3 -7 10 -27 30 -43 53
-47 59 -64 30 -92 -13 -13 -24 -27 -24 -31 0 -5 -15 -1 -32 8 -21 10 -51 15
-80 14 -27 -2 -48 1 -48 6 0 7 -44 9 -60 2 -3 -1 -8 -2 -12 -1 -5 0 -8 -4 -8
-11 0 -6 -3 -8 -6 -5 -7 7 -107 -42 -112 -55 -2 -5 -9 -8 -15 -8 -17 0 -128
-106 -120 -114 3 -3 1 -6 -5 -6 -6 0 -23 -20 -38 -45 -25 -43 -55 -58 -69 -35
-4 6 -13 5 -25 -2 -10 -7 -17 -15 -15 -19 3 -3 -14 -23 -36 -43 -36 -32 -45
-35 -87 -32 -26 1 -53 -1 -59 -7 -9 -6 -13 -6 -13 1 0 5 -9 8 -20 5 -11 -3
-20 -10 -20 -15 0 -5 -4 -7 -9 -4 -11 7 -71 -53 -72 -73 -5 -50 1 -77 21 -93
12 -10 19 -18 15 -18 -4 0 -2 -6 4 -14 10 -11 8 -18 -8 -33 -21 -20 -22 -45
-1 -83 6 -11 15 -18 19 -16 4 3 16 0 25 -7 16 -12 16 -18 3 -75 -10 -44 -11
-62 -3 -62 6 0 5 -4 -2 -9 -8 -4 -13 -11 -13 -15 3 -20 0 -26 -9 -21 -10 6
-94 -75 -86 -83 3 -2 -3 -12 -12 -23 -31 -35 -51 -109 -39 -143 6 -17 13 -33
16 -36 3 -3 17 -25 31 -50 27 -51 57 -79 83 -80 9 0 17 -4 17 -10 0 -5 7 -10
15 -10 11 0 9 -6 -8 -26 -49 -58 -67 -74 -78 -74 -7 0 -10 -3 -7 -6 7 -7 -70
-84 -84 -84 -5 0 -7 -3 -5 -7 2 -5 -4 -16 -15 -25 -10 -10 -18 -16 -18 -14 0
2 -15 -10 -33 -27 -18 -18 -31 -35 -29 -39 2 -5 -1 -8 -5 -8 -13 0 -102 -88
-95 -94 3 -3 1 -6 -4 -6 -14 0 -64 -46 -64 -59 0 -6 -4 -11 -8 -11 -7 0 -116
-106 -180 -176 -7 -8 -18 -14 -23 -14 -6 0 -8 -3 -6 -7 2 -5 -4 -16 -15 -25
-10 -10 -18 -16 -18 -13 0 2 -20 -17 -45 -43 -25 -26 -45 -50 -45 -54 0 -4 -9
-10 -20 -13 -11 -4 -18 -9 -16 -13 4 -7 -19 -33 -25 -29 -2 1 -20 -15 -40 -35
-21 -21 -35 -38 -33 -38 6 0 -47 -50 -54 -51 -4 -1 -42 -39 -84 -84 -43 -46
-78 -81 -78 -79 0 3 -18 -16 -40 -41 -22 -25 -40 -44 -40 -41 0 2 -13 -7 -28
-22 -15 -15 -27 -30 -25 -34 2 -4 -6 -9 -17 -13 -11 -4 -19 -9 -16 -13 2 -4
-13 -20 -34 -37 -21 -16 -44 -40 -51 -52 -7 -13 -16 -23 -20 -23 -3 0 -25 -18
-47 -40 -22 -22 -38 -40 -36 -40 2 0 -23 -24 -55 -52 -33 -29 -60 -56 -60 -60
-1 -10 -41 -50 -41 -42 0 3 -11 -7 -25 -22 -14 -15 -25 -31 -25 -35 0 -5 -4
-9 -9 -9 -11 0 -171 -161 -171 -172 0 -4 -4 -8 -8 -8 -4 0 -53 -45 -108 -100
-120 -121 -114 -116 -153 -152 -17 -16 -31 -34 -31 -39 0 -5 -4 -9 -10 -9 -11
0 -90 -80 -90 -92 0 -4 -4 -8 -9 -8 -11 0 -581 -571 -581 -582 0 -4 -4 -8 -8
-8 -14 0 -52 -36 -52 -49 0 -6 -4 -11 -8 -11 -11 0 -92 -79 -92 -90 0 -5 -9
-11 -19 -15 -11 -3 -23 -15 -26 -26 -4 -10 -10 -19 -15 -19 -5 0 -47 -38 -93
-85 -46 -47 -81 -85 -78 -85 2 0 -8 -10 -25 -22 -16 -13 -57 -52 -91 -88 -34
-36 -72 -76 -85 -90 -13 -14 -52 -51 -85 -82 -34 -32 -59 -58 -56 -58 2 0 -10
-12 -29 -27 -18 -16 -39 -34 -46 -40 -7 -7 -17 -13 -21 -13 -16 0 -41 94 -42
163 0 9 -5 15 -11 11 -7 -4 -7 0 0 12 5 11 8 28 6 39 -3 11 -7 49 -9 85 -9
108 -12 129 -29 164 -17 35 -59 70 -71 58 -4 -4 -11 -8 -16 -8 -5 -1 -13 -2
-18 -3 -15 -2 -54 -125 -58 -186 -8 -115 -8 -130 -2 -167 3 -20 3 -42 -1 -49
-4 -6 -4 -25 0 -40 5 -16 5 -42 0 -59 -5 -16 -5 -32 0 -35 5 -3 6 -18 3 -33
-3 -15 -6 -41 -7 -59 -1 -18 -5 -35 -9 -39 -4 -4 -7 -15 -7 -25 0 -18 -47 -33
-52 -17 -5 15 -58 -42 -64 -69 -4 -12 -9 -23 -13 -23 -4 0 -8 -8 -9 -17 -2
-18 -9 -54 -12 -63 -5 -11 -7 -26 -8 -52 -2 -24 -58 -97 -110 -142 -50 -43
-148 -146 -144 -151 3 -3 0 -5 -6 -5 -6 0 -60 -50 -121 -111 -89 -89 -109
-114 -102 -128 14 -25 100 -109 106 -103 3 3 5 1 5 -5 0 -12 259 -273 271
-273 5 0 9 -4 9 -9 0 -13 148 -159 155 -153 3 3 5 1 5 -5 0 -5 38 -48 85 -95
47 -47 86 -92 87 -99 0 -8 2 -72 4 -144 2 -134 3 -141 22 -187 19 -46 70 -60
100 -28 21 23 29 105 11 126 -9 11 -9 14 0 14 7 0 9 5 5 11 -3 6 -9 27 -11 47
-5 34 -4 35 13 22 11 -8 44 -40 76 -72 31 -31 59 -54 62 -50 3 3 6 -2 6 -12 0
-9 5 -14 10 -11 5 3 10 -1 10 -9 0 -9 4 -16 8 -16 14 0 117 -104 134 -135 20
-37 32 -67 30 -77 -1 -5 3 -8 9 -8 5 0 7 -5 4 -10 -3 -6 -1 -10 6 -10 7 0 10
-3 6 -6 -3 -4 0 -19 8 -34 8 -15 12 -30 9 -33 -3 -3 -2 -12 2 -19 4 -7 9 -19
10 -28 3 -26 14 -94 19 -116 3 -11 7 -43 10 -70 3 -27 8 -65 11 -84 3 -19 7
-64 9 -100 2 -36 6 -94 9 -130 3 -36 8 -90 10 -120 5 -62 37 -156 73 -212 13
-21 18 -38 12 -38 -6 0 -16 -6 -22 -13 -15 -15 -22 -51 -9 -43 6 3 12 1 14 -5
7 -21 48 0 48 24 0 12 4 18 8 12 29 -41 172 -84 172 -52 0 6 3 8 6 4 12 -12
42 29 55 73 17 61 18 70 11 70 -4 0 -8 10 -8 23 -3 49 -9 77 -17 77 -4 0 -5 5
-2 10 3 6 3 16 -2 23 -9 14 -13 34 -15 65 0 12 -3 22 -7 22 -3 0 -7 17 -8 38
0 20 -3 65 -5 100 -4 48 -1 65 11 75 12 10 13 9 7 -1 -7 -11 -4 -11 13 0 18
11 23 11 30 0 4 -8 11 -13 15 -13 27 4 31 -2 30 -43 -2 -45 20 -92 44 -91 17
0 42 50 37 75 -3 17 -1 19 16 10 10 -6 19 -18 19 -27 0 -9 3 -14 6 -10 3 3 40
-28 82 -69 42 -41 79 -74 82 -74 4 0 13 -11 20 -25 7 -14 19 -25 26 -25 19 0
6 -32 -37 -88 -21 -29 -36 -52 -32 -52 4 0 -3 -7 -15 -16 -12 -8 -20 -20 -17
-25 4 -5 -1 -12 -9 -15 -9 -3 -16 -10 -16 -15 0 -8 -20 -35 -48 -64 -6 -8 -12
-19 -12 -25 0 -6 -4 -9 -9 -6 -5 3 -12 -1 -15 -10 -3 -8 -10 -13 -15 -10 -5 3
-12 -1 -15 -10 -3 -9 -12 -14 -20 -11 -7 3 -19 -3 -26 -13 -7 -10 -21 -17 -32
-15 -10 2 -18 0 -18 -5 0 -4 -21 -20 -47 -36 -27 -15 -56 -35 -66 -46 -10 -10
-22 -16 -28 -13 -5 4 -9 -1 -9 -9 0 -9 -4 -16 -9 -16 -11 0 -85 -70 -74 -70 4
-1 -3 -7 -17 -15 -14 -8 -22 -14 -18 -15 4 0 -12 -20 -35 -44 -56 -57 -73 -79
-92 -116 -8 -16 -20 -30 -25 -30 -6 0 -9 -3 -8 -7 1 -5 -6 -22 -15 -40 -9 -18
-17 -38 -17 -46 0 -20 -48 -69 -60 -62 -6 3 -10 2 -10 -4 0 -5 -10 -13 -22
-17 -19 -6 -72 -59 -73 -73 -1 -3 -8 -20 -18 -38 -14 -26 -16 -52 -12 -165 3
-73 7 -161 8 -196 1 -34 6 -62 11 -62 5 0 3 -6 -3 -13 -6 -8 -9 -16 -6 -18 2
-3 6 -25 9 -50 2 -24 5 -44 6 -44 1 0 3 -16 5 -35 2 -19 6 -48 9 -65 3 -16 8
-46 11 -65 6 -37 12 -72 15 -80 1 -3 3 -9 4 -15 13 -66 38 -116 82 -163 18
-20 34 -40 34 -44 0 -4 5 -8 11 -8 6 0 29 -16 51 -36 34 -30 88 -62 121 -70 4
-1 8 -3 10 -4 7 -7 154 -5 164 3 9 6 13 6 13 -1 0 -11 25 -11 36 0 3 4 17 3
30 -2 13 -5 24 -6 24 -1 0 10 43 8 51 -3 4 -5 23 -9 43 -10 20 0 36 -4 36 -8
0 -12 73 0 80 13 4 6 11 10 16 8 14 -4 84 55 80 67 -5 14 31 37 39 24 3 -5 12
-7 20 -3 8 3 15 1 15 -4 0 -5 6 -10 13 -11 36 -2 84 -11 100 -17 10 -4 17 -3
17 4 0 8 5 9 16 3 9 -5 32 -6 50 -2 19 4 34 6 34 4 0 -3 15 12 32 33 18 21 37
41 43 45 5 4 7 8 3 8 -5 0 0 8 9 18 17 16 19 16 38 -3 12 -11 20 -23 18 -26
-1 -3 8 -16 21 -28 27 -25 76 -33 121 -19 17 6 39 11 50 14 11 2 47 10 80 19
33 8 71 17 85 20 33 8 54 13 60 15 3 1 8 2 13 1 4 0 7 3 7 7 0 4 16 14 35 21
19 7 35 17 35 22 0 6 4 8 9 5 10 -6 34 42 26 54 -3 4 1 10 9 13 8 3 17 19 21
36 4 17 11 31 16 31 5 0 8 3 7 8 -1 4 4 34 12 67 17 74 17 74 20 78 2 3 7 26
15 72 4 22 11 47 16 56 4 9 6 19 2 22 -3 3 -2 14 2 24 4 10 8 39 10 65 2 26 6
52 10 57 3 6 -5 22 -18 35 -14 14 -22 27 -19 30 3 3 -2 6 -11 6 -9 0 -36 11
-60 25 -25 13 -47 21 -51 18 -3 -4 -6 -1 -6 5 0 6 -9 14 -20 17 -21 7 -27 39
-10 50 5 3 10 13 10 21 0 8 8 22 18 32 9 10 24 29 32 42 8 12 25 34 37 48 12
13 30 41 40 61 19 40 55 74 91 85 25 8 29 -5 7 -27 -8 -8 -11 -17 -8 -21 4 -3
1 -6 -5 -6 -7 0 -12 -7 -12 -15 0 -9 -7 -18 -15 -21 -33 -13 -28 -45 12 -82
116 -107 150 -142 145 -147 -3 -3 -1 -5 4 -5 5 0 20 -10 34 -21 14 -11 18 -17
10 -13 -12 6 -13 5 -3 -8 12 -14 11 -78 -2 -138 -3 -14 -8 -41 -11 -60 -3 -19
-7 -46 -9 -60 -2 -14 -7 -41 -9 -60 -6 -41 -15 -96 -22 -127 -2 -13 -6 -33 -8
-45 -3 -13 -7 -39 -10 -58 -3 -19 -8 -46 -11 -60 -2 -13 -7 -40 -10 -60 -3
-20 -8 -47 -11 -60 -2 -14 -7 -38 -9 -55 -3 -16 -7 -41 -10 -55 -3 -14 -9 -50
-15 -80 -6 -30 -12 -66 -15 -80 -3 -14 -8 -41 -11 -60 -3 -19 -7 -46 -10 -60
-8 -48 -16 -93 -19 -119 -2 -14 -4 -26 -5 -26 -1 0 -3 -11 -5 -25 -4 -42 -14
-114 -19 -140 -6 -29 -14 -93 -22 -165 -3 -27 -7 -67 -9 -89 -2 -21 -6 -40 -8
-43 -3 -2 -1 -20 3 -39 4 -18 4 -34 0 -34 -6 0 -7 -70 -2 -118 3 -21 115 -125
157 -147 22 -11 42 -23 43 -27 2 -5 10 -8 17 -8 7 0 15 -4 17 -8 3 -7 281
-151 293 -151 3 -1 22 -8 43 -17 20 -8 49 -18 65 -21 15 -3 27 -9 27 -14 0 -5
3 -8 8 -8 4 1 9 0 12 -1 8 -3 44 -11 60 -14 9 -1 20 -5 26 -9 6 -3 28 -10 50
-16 21 -5 66 -17 98 -25 33 -9 67 -18 75 -20 9 -2 23 -6 31 -9 8 -3 29 -8 45
-11 17 -4 39 -8 50 -11 11 -3 30 -7 43 -10 12 -3 31 -7 42 -10 11 -3 30 -7 43
-10 20 -4 75 -17 87 -20 3 -1 25 -5 50 -9 67 -11 85 -14 85 -16 0 -3 180 -30
240 -36 22 -2 76 -7 120 -11 121 -11 480 -6 480 7 0 1 14 3 30 4 27 3 48 6
137 21 15 3 38 9 52 15 15 5 26 8 26 6 0 -2 42 7 93 20 50 14 99 27 107 29 8
2 16 4 18 5 1 2 11 4 22 5 11 1 21 3 23 5 1 1 9 3 17 5 8 1 35 8 60 15 25 7
53 14 62 15 10 2 23 7 28 10 5 3 18 8 28 10 9 1 37 9 62 16 25 7 47 13 50 14
3 0 37 12 75 25 39 13 72 25 75 25 3 1 19 7 35 14 17 6 44 16 60 22 17 6 44
18 62 25 17 8 34 14 38 14 3 0 67 29 142 65 75 36 140 65 144 65 5 0 9 3 9 8
0 4 20 15 45 25 26 11 42 23 38 30 -3 5 -2 7 4 4 5 -3 34 9 64 28 30 19 73 44
97 56 23 12 42 26 42 31 0 4 6 8 14 8 8 0 22 10 30 22 9 12 16 19 16 14 0 -5
7 -3 15 4 8 7 15 9 15 4 0 -5 5 -1 11 8 5 10 17 18 24 18 8 0 15 4 15 8 0 5
18 18 40 31 22 12 40 27 40 33 0 6 3 8 7 5 12 -12 82 71 78 93 -2 11 -1 20 3
20 12 0 11 65 -2 72 -7 5 -7 8 0 8 7 0 11 35 13 93 1 50 4 106 6 122 5 35 18
208 19 248 1 15 4 27 7 27 4 0 6 12 6 28 0 15 3 61 8 102 4 41 9 85 9 98 1 12
5 22 9 22 5 0 6 4 3 8 -3 4 -1 26 4 48 13 57 20 94 26 139 16 118 34 189 68
275 35 88 48 121 50 130 1 3 6 14 12 25 6 11 17 41 24 68 7 26 17 47 23 47 6
0 8 3 5 6 -4 3 5 30 18 60 13 30 24 61 24 69 0 8 4 15 9 15 10 0 21 27 20 44
0 5 4 12 9 15 11 7 74 141 75 158 0 14 27 27 36 18 11 -12 8 -98 -5 -123 -8
-15 -14 -33 -14 -39 0 -7 -5 -13 -11 -13 -6 0 -9 -7 -5 -15 3 -8 1 -15 -5 -15
-6 0 -8 -4 -5 -9 4 -5 3 -11 -2 -13 -11 -4 -52 -94 -52 -113 0 -8 -5 -15 -10
-15 -6 0 -10 -6 -9 -12 1 -7 -8 -35 -20 -63 -13 -27 -35 -81 -50 -120 -15 -38
-32 -79 -36 -90 -7 -18 -11 -34 -19 -70 -1 -5 -5 -16 -9 -22 -5 -7 -6 -13 -3
-13 2 0 -2 -22 -8 -48 -7 -26 -12 -60 -10 -75 2 -19 -1 -25 -9 -21 -9 5 -9 4
-1 -5 9 -10 20 -5 48 23 19 20 33 36 30 36 -3 0 1 6 8 14 7 8 15 13 16 11 6
-5 72 65 72 76 0 5 4 9 9 9 12 0 159 148 153 155 -3 3 -1 5 5 5 12 0 68 50 56
50 -4 0 0 5 10 11 9 6 15 14 12 20 -3 5 0 6 8 3 9 -3 19 6 27 26 7 17 15 28
18 26 3 -3 13 4 23 15 17 20 18 20 59 -40 22 -34 45 -61 49 -61 9 0 24 -38 22
-53 -1 -5 3 -6 8 -2 6 3 15 -5 22 -17 7 -12 17 -28 23 -34 6 -7 20 -24 31 -40
11 -15 28 -36 38 -46 9 -10 17 -21 17 -25 0 -5 13 -22 28 -39 15 -17 36 -43
47 -59 11 -15 32 -43 48 -62 15 -20 27 -40 27 -46 0 -6 3 -7 6 -4 4 4 20 -13
35 -37 16 -23 40 -55 54 -70 14 -15 25 -29 25 -32 0 -3 6 -12 13 -19 6 -8 23
-28 37 -45 14 -17 35 -42 48 -55 12 -13 22 -26 22 -29 0 -5 10 -17 83 -98 15
-16 27 -33 27 -37 0 -4 11 -14 25 -21 14 -7 23 -15 21 -18 -7 -6 177 -180 260
-246 14 -12 36 -29 48 -39 11 -10 33 -26 49 -35 15 -9 27 -20 27 -25 0 -4 5
-5 10 -2 6 3 10 1 10 -5 0 -5 16 -18 35 -27 19 -9 35 -20 35 -25 0 -4 7 -8 15
-8 8 0 15 -4 15 -10 0 -5 6 -10 13 -10 7 0 22 -8 33 -18 22 -21 195 -108 207
-104 4 1 7 -2 7 -6 0 -5 6 -9 13 -10 19 -1 56 -10 67 -17 5 -3 25 -6 45 -7 19
-1 35 -6 35 -12 0 -7 3 -7 8 -1 4 6 21 10 37 11 61 1 145 16 140 25 -3 5 1 6
9 3 9 -3 16 -1 16 6 0 6 5 8 10 5 6 -3 10 -1 10 6 0 7 3 10 6 6 7 -6 29 11 90
69 24 22 46 39 48 37 2 -3 7 5 11 16 3 12 11 21 16 21 5 0 9 7 9 15 0 8 5 15
10 15 6 0 15 11 20 25 5 14 14 25 20 25 6 0 8 5 5 11 -4 5 0 18 8 27 17 20 60
111 60 130 0 6 4 12 9 12 5 0 6 5 3 11 -4 5 0 18 8 27 9 9 16 20 16 25 1 4 1
8 2 10 2 6 9 34 13 52 2 11 5 20 6 20 2 0 7 20 15 59 3 16 8 33 11 38 3 4 -1
8 -8 8 -10 0 -9 3 1 9 12 8 15 40 15 163 -1 84 -4 176 -8 203 -4 28 -9 62 -10
77 -2 14 -7 34 -10 45 -7 25 -19 85 -20 106 0 9 -3 17 -6 17 -4 0 -7 6 -8 13
-1 14 -10 51 -12 55 -2 1 -3 6 -4 11 0 5 -4 13 -8 17 -5 4 -8 16 -8 26 0 10
-5 18 -11 18 -5 0 -7 4 -4 10 3 5 0 20 -7 32 -7 13 -13 25 -13 28 -1 3 -9 22
-18 44 -9 21 -17 42 -17 47 0 5 -4 9 -10 9 -5 0 -10 11 -10 24 0 13 -7 29 -15
36 -8 6 -14 15 -13 18 1 4 -9 30 -22 57 -12 28 -23 60 -23 72 0 13 -3 23 -6
23 -3 0 -7 10 -7 23 -1 12 -5 36 -9 52 -3 17 -8 39 -9 50 -2 11 -7 28 -11 37
-4 9 -4 22 0 28 3 5 1 10 -4 10 -6 0 -10 3 -9 8 1 4 -3 30 -7 57 -5 28 -9 57
-10 65 0 8 -3 20 -6 25 -3 6 -7 30 -8 55 -1 24 -5 47 -9 50 -4 3 -8 23 -8 45
-1 36 -7 80 -19 140 -2 11 -6 35 -9 53 -3 18 -8 36 -11 41 -7 12 6 72 14 66 4
-2 22 24 39 58 18 34 41 77 52 96 20 35 41 89 37 95 -1 1 3 9 9 17 10 13 27
66 22 71 -1 2 4 13 10 25 12 21 25 94 23 123 -3 45 -24 82 -53 93 -19 7 -24
42 -8 52 14 9 13 48 -2 77 -22 40 -55 78 -70 78 -7 0 -20 9 -28 19 -7 11 -17
18 -22 15 -4 -3 -8 0 -8 5 0 6 -7 11 -15 11 -8 0 -15 4 -15 9 0 5 -11 12 -25
15 -14 4 -25 11 -25 17 0 6 -4 7 -10 4 -5 -3 -10 -1 -10 4 0 6 -7 11 -15 11
-8 0 -15 6 -15 13 -1 16 -67 87 -83 87 -8 0 -7 4 3 10 13 9 13 10 0 10 -8 0
-25 15 -37 33 -12 17 -35 46 -50 63 -15 17 -39 45 -53 64 -14 18 -31 39 -37
46 -7 7 -13 15 -13 18 0 5 -39 51 -82 97 -10 11 -18 24 -18 30 0 5 -4 7 -10 4
-5 -3 -10 -1 -10 6 0 10 -88 125 -127 167 -7 7 -13 17 -13 20 0 4 -11 20 -25
35 -14 15 -22 27 -18 27 4 0 3 4 -3 8 -9 6 -28 33 -82 117 -16 26 -106 214
-157 330 -8 17 -31 69 -53 116 -22 47 -43 96 -46 107 -7 20 -30 32 -146 71
-41 13 -55 23 -55 37 0 23 44 29 95 12 19 -7 37 -13 40 -13 3 -1 33 -10 68
-20 58 -16 65 -21 79 -57 8 -21 19 -38 24 -38 5 0 6 -7 3 -15 -4 -8 -1 -15 5
-15 6 0 11 -5 11 -12 0 -20 100 -230 115 -240 5 -4 6 -8 2 -8 -5 0 -1 -12 7
-27 23 -41 60 -127 58 -135 -1 -5 2 -8 7 -8 5 0 14 -13 21 -30 7 -16 17 -30
22 -30 5 0 6 -4 3 -10 -3 -6 -2 -10 3 -10 5 0 24 -24 42 -52 28 -45 92 -130
110 -148 3 -3 11 -17 19 -32 8 -15 18 -25 23 -22 4 3 8 -1 8 -8 0 -7 15 -29
33 -49 17 -20 47 -55 65 -77 18 -23 46 -55 62 -72 16 -17 28 -32 27 -34 -1 -2
21 -29 50 -62 75 -86 91 -105 126 -148 18 -22 42 -50 53 -62 12 -13 20 -25 17
-28 -3 -2 10 -12 28 -22 31 -16 35 -16 66 1 18 10 33 22 33 26 0 11 49 59 60
59 6 0 9 3 8 8 -1 4 20 29 47 57 27 27 45 43 40 35 -5 -8 31 26 80 75 50 50
89 92 88 94 -2 2 12 15 29 28 18 12 28 23 22 23 -5 1 2 7 16 14 22 13 26 12
42 -6 10 -11 20 -30 24 -42 4 -11 11 -24 17 -27 14 -9 9 -182 -6 -206 -8 -13
-2 -181 7 -203 4 -9 16 -21 27 -28 18 -11 24 -9 49 18 25 27 47 81 42 103 -1
4 2 7 7 7 5 0 8 14 7 31 -1 16 1 32 4 34 3 2 7 50 7 107 2 150 16 231 60 338
3 8 5 18 5 23 -1 4 3 7 9 7 5 0 8 4 5 9 -3 5 1 14 9 21 8 7 12 16 9 21 -3 5 0
9 5 9 6 0 11 6 11 14 0 7 7 19 15 26 9 7 14 15 11 17 -2 2 7 16 20 30 13 14
24 32 24 38 0 7 7 16 16 19 8 3 12 10 9 16 -3 5 -1 10 4 10 6 0 11 4 11 10 0
5 8 19 18 30 9 11 16 23 14 26 -2 3 6 14 17 23 11 10 18 20 16 23 -3 3 5 16
18 30 12 13 33 37 45 53 12 15 22 25 22 21 0 -3 32 26 70 65 39 38 70 75 70
81 0 6 3 9 6 6 7 -8 38 23 47 46 4 9 10 15 14 13 8 -4 84 69 78 75 -2 1 3 9
11 16 8 7 14 11 14 8 0 -2 31 27 68 64 65 65 84 100 55 100 -7 0 -13 5 -13 10
0 14 -37 50 -52 50 -6 0 -9 3 -5 6 7 8 -17 34 -32 34 -6 0 -11 4 -11 9 0 11
-100 111 -111 111 -5 0 -9 4 -9 8 0 12 -259 272 -271 272 -5 0 -9 6 -9 14 0 8
-9 18 -20 21 -11 4 -18 10 -15 15 3 5 -4 11 -15 15 -11 3 -20 11 -20 16 0 11
-141 149 -152 149 -5 0 -8 5 -8 10 0 12 -101 110 -112 110 -5 0 -8 4 -8 10 0
11 -110 120 -122 120 -4 0 -8 5 -8 10 0 14 -37 50 -52 50 -6 0 -9 2 -6 5 6 7
-79 95 -92 95 -5 0 -10 7 -10 15 0 8 -7 15 -15 15 -8 0 -15 6 -15 14 0 8 -9
18 -20 21 -11 3 -20 10 -20 15 0 12 -130 140 -142 140 -4 0 -8 3 -8 8 0 11
-108 121 -113 115 -3 -2 -8 5 -12 16 -3 12 -13 21 -21 21 -8 0 -14 4 -14 9 0
12 -118 129 -125 123 -3 -3 -5 -1 -5 5 0 13 -89 103 -101 103 -5 0 -8 3 -7 8
3 9 -60 72 -72 72 -5 0 -12 9 -15 20 -4 11 -11 18 -16 15 -5 -4 -9 1 -9 10 0
9 -4 13 -10 10 -5 -3 -10 -2 -10 3 0 12 -331 342 -343 342 -4 0 -5 5 -2 10 3
6 -1 10 -10 10 -9 0 -14 3 -12 8 3 4 -13 21 -34 37 -21 17 -38 34 -39 38 0 10
-102 107 -112 107 -5 0 -8 5 -8 11 0 14 -26 39 -40 39 -6 0 -9 4 -6 8 3 5 -6
15 -19 22 -13 7 -23 16 -21 19 2 3 -2 12 -10 19 -8 7 -14 9 -14 5 0 -4 -9 6
-20 22 -11 17 -20 26 -20 20 0 -5 -12 7 -27 28 -14 20 -29 37 -32 37 -3 0 -7
18 -7 40 -1 52 -23 121 -43 138 -8 6 -11 12 -7 12 11 0 -32 32 -64 48 -86 43
-86 44 -85 154 0 46 -4 78 -10 78 -5 0 -4 4 3 8 28 18 -25 165 -81 225 -30 31
-61 109 -49 121 3 4 7 14 8 24 2 24 21 107 24 107 8 0 27 153 23 192 -4 50
-24 113 -35 113 -5 0 -7 4 -4 8 7 12 -34 47 -62 54 -12 4 -24 2 -27 -3 -3 -4
-12 -6 -19 -3 -15 6 -63 -47 -77 -84 -5 -14 -10 -48 -10 -76 -1 -42 9 -249 12
-274 1 -4 0 -11 -1 -17 -1 -5 -1 -37 -1 -70 1 -33 -3 -67 -9 -75 -5 -8 -10
-10 -10 -4 0 16 -126 76 -152 72 -13 -2 -29 -9 -36 -15 -16 -15 -66 -18 -57
-3 3 6 2 10 -3 10 -10 0 -89 77 -225 219 -42 44 -79 81 -82 81 -7 0 -85 83
-85 90 0 4 -11 12 -24 18 -18 8 -27 8 -34 -1 -8 -10 -62 -120 -67 -137 -1 -3
-10 -23 -19 -45 -38 -88 -44 -101 -57 -135 -8 -19 -14 -37 -15 -40 0 -3 -5
-16 -11 -30 -20 -50 -20 -55 14 -87 19 -18 31 -33 27 -33 -3 0 -2 -6 3 -12 6
-7 11 -20 11 -28 6 -78 10 -95 23 -92 38 9 73 4 85 -14 7 -10 18 -24 24 -31 5
-7 10 -21 10 -32 0 -11 5 -23 10 -26 6 -4 8 -11 5 -16 -4 -5 -1 -9 5 -9 6 0 9
-4 6 -8 -3 -5 0 -26 6 -48 21 -76 16 -264 -9 -324 -3 -8 -7 -19 -9 -25 -1 -5
-7 -23 -14 -40 -6 -16 -10 -30 -8 -31 2 0 -3 -8 -10 -17 -8 -9 -11 -20 -8 -26
3 -5 2 -11 -4 -13 -5 -1 -11 -12 -13 -23 -2 -11 -9 -31 -16 -45 -10 -21 -11
-17 -6 30 3 30 8 80 10 110 2 30 7 80 12 110 14 104 6 246 -17 290 -6 11 -8
20 -5 20 3 0 -1 10 -10 23 -8 13 -13 26 -10 29 3 3 -1 11 -10 18 -8 7 -15 18
-15 26 0 23 -37 36 -75 25 -19 -5 -35 -6 -36 -3 -9 126 -9 126 -49 162 -39 36
-45 58 -23 93 4 6 8 14 9 17 0 3 6 19 13 35 6 17 21 53 32 82 12 29 20 55 19
59 -1 4 2 10 7 13 4 3 21 35 38 71 16 36 37 76 45 90 9 14 23 41 30 60 7 19
19 42 26 50 15 18 40 80 39 97 0 7 -17 27 -37 46 -27 24 -40 47 -48 81 -6 26
-15 54 -20 64 -15 28 -43 95 -47 117 -2 11 -8 24 -13 29 -6 6 -10 17 -10 26 0
8 -11 24 -25 34 -13 10 -22 23 -19 27 6 10 6 105 1 129 -11 45 -27 69 -47 67
-11 -1 -20 -6 -21 -12 0 -5 -4 -1 -8 10 -4 10 -7 34 -5 52 1 18 -2 31 -6 28
-13 -8 -15 14 -15 137 0 65 -2 118 -5 118 -3 0 -7 26 -8 57 -1 31 -6 60 -10
63 -4 3 -9 19 -11 35 -1 17 -7 38 -12 47 -5 9 -9 26 -9 37 0 10 -4 21 -10 23
-5 2 -11 12 -13 23 -4 19 -7 28 -24 73 -3 9 -7 19 -8 22 -11 32 -68 154 -74
160 -3 3 -17 26 -30 52 -14 26 -29 44 -34 41 -6 -3 -7 -1 -4 4 8 13 -36 74
-100 138 -58 59 -75 72 -128 105 -22 13 -42 27 -45 30 -3 4 -30 19 -62 34 -31
15 -59 30 -62 34 -4 3 -13 7 -20 8 -7 1 -29 9 -47 17 -72 34 -171 64 -265 82
-11 2 -19 4 -19 5 0 5 -101 11 -230 13 -168 3 -190 10 -255 79 -43 45 -113 73
-131 52z m1644 -2964 c9 -11 18 -35 20 -53 4 -32 1 -35 -43 -54 l-47 -20 12
48 c7 27 11 49 9 49 -3 0 -2 6 3 13 4 6 8 15 9 20 3 15 4 17 12 17 4 0 15 -9
25 -20z m-467 -1574 c3 -8 -2 -26 -11 -40 -10 -14 -14 -26 -10 -26 4 0 3 -6
-2 -12 -5 -7 -8 -23 -7 -36 1 -21 -9 -22 -12 -1 -1 5 -3 11 -4 14 -1 3 -4 10
-5 15 -1 6 -3 11 -4 13 -2 1 -4 12 -7 25 -2 14 1 22 10 22 8 0 18 9 21 20 7
23 23 26 31 6z m574 -1064 c25 -11 49 -20 54 -20 5 0 12 -4 15 -9 3 -4 22 -16
41 -25 19 -10 77 -40 128 -67 50 -27 92 -47 92 -44 0 4 8 0 18 -9 14 -12 66
-39 82 -43 3 0 21 -9 40 -20 53 -29 173 -87 185 -90 5 -1 30 -11 55 -22 25
-11 77 -31 115 -43 39 -13 73 -29 77 -34 5 -7 8 -5 8 4 0 10 3 11 8 4 4 -6 14
-14 22 -18 8 -3 -19 -3 -60 0 -41 4 -91 8 -110 9 -19 1 -35 3 -35 4 0 2 -11 4
-25 7 -28 5 -116 37 -175 64 -22 10 -59 26 -82 35 -24 10 -43 22 -43 27 0 6
-6 8 -14 5 -8 -3 -23 3 -35 14 -12 11 -21 18 -21 15 0 -2 -19 6 -42 19 -24 13
-70 38 -103 56 -33 18 -61 36 -63 41 -2 4 -10 8 -18 8 -8 0 -17 8 -21 18 -8
24 -44 62 -58 62 -6 0 -21 10 -34 21 -13 12 -34 22 -47 22 -18 0 -22 3 -14 12
5 6 6 16 2 20 -4 5 -2 6 3 3 6 -3 30 -15 55 -26z m1327 -617 c0 -8 -4 -12 -9
-9 -5 3 -6 10 -3 15 9 13 12 11 12 -6z"/>
<path d="M8213 11435 c-44 -31 -42 -130 4 -141 16 -4 28 -2 34 7 5 8 9 10 9 4
0 -5 6 -1 14 10 7 11 13 40 13 65 -1 66 -29 87 -74 55z"/>
<path d="M8264 11240 c-12 -5 -25 -13 -29 -19 -3 -6 -10 -9 -14 -7 -16 10 -5
-41 12 -56 21 -19 30 -22 62 -18 42 5 50 8 48 19 -2 6 2 11 7 11 11 0 13 39 4
64 -7 18 -54 21 -90 6z"/>
<path d="M3066 9833 c-14 -14 -4 -47 20 -69 32 -30 54 -31 54 -1 -1 36 -56 88
-74 70z"/>
<path d="M2873 9773 c-13 -2 -23 -9 -23 -14 0 -14 69 -78 105 -97 50 -26 97
-24 74 4 -6 8 -8 14 -5 14 12 0 -28 36 -76 68 -26 18 -48 31 -50 31 -2 -1 -13
-4 -25 -6z"/>
<path d="M2674 9458 c-3 -4 -9 -6 -14 -3 -4 3 -10 -2 -13 -9 -11 -28 24 -41
110 -42 46 -1 87 -4 90 -8 3 -3 14 -1 24 4 10 6 20 6 23 2 8 -14 117 -6 126 8
14 22 0 38 -38 45 -54 11 -302 14 -308 3z"/>
</g>
</svg>
